<svg width="16" height="16" viewBox="0 0 16 16" fill="none" xmlns="http://www.w3.org/2000/svg">
<path d="M8 1C6.5 1 5.5 2 5.5 3.5C5.5 5 6.5 6 8 6C9.5 6 10.5 5 10.5 3.5C10.5 2 9.5 1 8 1Z" stroke="currentColor" stroke-width="1.5" stroke-linecap="round" stroke-linejoin="round"/>
<path d="M8 6V8" stroke="currentColor" stroke-width="1.5" stroke-linecap="round" stroke-linejoin="round"/>
<path d="M3 8H13C13.55 8 14 8.45 14 9V13C14 13.55 13.55 14 13 14H3C2.45 14 2 13.55 2 13V9C2 8.45 2.45 8 3 8Z" stroke="currentColor" stroke-width="1.5" stroke-linecap="round" stroke-linejoin="round"/>
</svg>

