<svg width="19" height="17" viewBox="0 0 19 17" fill="none" xmlns="http://www.w3.org/2000/svg">
<path d="M17.6231 13.6023L10.8279 1.71065C10.6797 1.44921 10.4648 1.23175 10.2052 1.08045C9.94555 0.92916 9.65042 0.849446 9.34991 0.849446C9.0494 0.849446 8.75427 0.92916 8.49463 1.08045C8.23498 1.23175 8.02012 1.44921 7.87195 1.71065L1.07671 13.6023C0.926945 13.8617 0.848414 14.1561 0.849077 14.4556C0.84974 14.7551 0.929574 15.0491 1.08049 15.3078C1.2314 15.5665 1.44803 15.7807 1.70841 15.9287C1.96879 16.0767 2.26367 16.1532 2.56317 16.1505H16.1536C16.4517 16.1502 16.7444 16.0715 17.0024 15.9223C17.2604 15.7731 17.4747 15.5586 17.6236 15.3004C17.7724 15.0422 17.8508 14.7493 17.8507 14.4513C17.8506 14.1532 17.7721 13.8604 17.6231 13.6023Z" stroke="#9810FA" stroke-width="1.66667" stroke-linecap="round" stroke-linejoin="round"/>
</svg>
