<svg width="24" height="24" viewBox="0 0 24 24" fill="none" xmlns="http://www.w3.org/2000/svg">
  <!-- Portfolio chart background -->
  <rect x="3" y="8" width="18" height="10" rx="2" fill="#F1F5F9" stroke="#E2E8F0" stroke-width="1.5"/>
  
  <!-- Chart bars representing portfolio performance -->
  <rect x="5" y="14" width="2" height="3" fill="#3B82F6" rx="0.5"/>
  <rect x="8" y="12" width="2" height="5" fill="#10B981" rx="0.5"/>
  <rect x="11" y="10" width="2" height="7" fill="#F59E0B" rx="0.5"/>
  <rect x="14" y="13" width="2" height="4" fill="#EF4444" rx="0.5"/>
  <rect x="17" y="11" width="2" height="6" fill="#8B5CF6" rx="0.5"/>
  
  <!-- Portfolio pie chart representation -->
  <circle cx="7" cy="5" r="3" fill="#F1F5F9" stroke="#E2E8F0" stroke-width="1"/>
  <path d="M7 2 A3 3 0 0 1 9.5 4.5 L7 5 Z" fill="#3B82F6"/>
  <path d="M9.5 4.5 A3 3 0 0 1 7 8 L7 5 Z" fill="#10B981"/>
  <path d="M7 8 A3 3 0 0 1 4.5 5.5 L7 5 Z" fill="#F59E0B"/>
  
  <!-- Portfolio briefcase icon -->
  <rect x="15" y="3" width="6" height="4" rx="1" fill="#F1F5F9" stroke="#E2E8F0" stroke-width="1"/>
  <rect x="16" y="2" width="4" height="1" rx="0.5" fill="#64748B"/>
  <line x1="17" y1="5" x2="19" y2="5" stroke="#64748B" stroke-width="1" stroke-linecap="round"/>
  
  <!-- Growth arrow -->
  <path d="M2 6 L4 4 L6 6" stroke="#10B981" stroke-width="1.5" stroke-linecap="round" stroke-linejoin="round" fill="none"/>
  <path d="M4 4 L4 2" stroke="#10B981" stroke-width="1.5" stroke-linecap="round"/>
</svg>
