<svg width="15" height="11" viewBox="0 0 15 11" fill="none" xmlns="http://www.w3.org/2000/svg">
<path d="M0.724479 5.6911C0.667659 5.53803 0.667659 5.36965 0.724479 5.21658C1.27788 3.87474 2.21725 2.72743 3.42349 1.92011C4.62973 1.11278 6.04853 0.681801 7.50001 0.681801C8.95149 0.681801 10.3703 1.11278 11.5765 1.92011C12.7828 2.72743 13.7221 3.87474 14.2755 5.21658C14.3324 5.36965 14.3324 5.53803 14.2755 5.6911C13.7221 7.03295 12.7828 8.18026 11.5765 8.98758C10.3703 9.7949 8.95149 10.2259 7.50001 10.2259C6.04853 10.2259 4.62973 9.7949 3.42349 8.98758C2.21725 8.18026 1.27788 7.03295 0.724479 5.6911Z" stroke="#1A2B4C" stroke-width="1.33333" stroke-linecap="round" stroke-linejoin="round"/>
</svg>
