<svg width="96" height="96" viewBox="0 0 96 96" fill="none" xmlns="http://www.w3.org/2000/svg">
<rect x="8" y="8" width="16" height="16" fill="currentColor"/>
<rect x="32" y="8" width="8" height="8" fill="currentColor"/>
<rect x="48" y="8" width="8" height="8" fill="currentColor"/>
<rect x="64" y="8" width="8" height="8" fill="currentColor"/>
<rect x="80" y="8" width="8" height="8" fill="currentColor"/>
<rect x="8" y="24" width="8" height="8" fill="currentColor"/>
<rect x="24" y="24" width="8" height="8" fill="currentColor"/>
<rect x="40" y="24" width="8" height="8" fill="currentColor"/>
<rect x="56" y="24" width="8" height="8" fill="currentColor"/>
<rect x="72" y="24" width="8" height="8" fill="currentColor"/>
<rect x="88" y="24" width="8" height="8" fill="currentColor"/>
<rect x="8" y="40" width="8" height="8" fill="currentColor"/>
<rect x="24" y="40" width="8" height="8" fill="currentColor"/>
<rect x="40" y="40" width="8" height="8" fill="currentColor"/>
<rect x="56" y="40" width="8" height="8" fill="currentColor"/>
<rect x="72" y="40" width="8" height="8" fill="currentColor"/>
<rect x="88" y="40" width="8" height="8" fill="currentColor"/>
<rect x="8" y="56" width="8" height="8" fill="currentColor"/>
<rect x="24" y="56" width="8" height="8" fill="currentColor"/>
<rect x="40" y="56" width="8" height="8" fill="currentColor"/>
<rect x="56" y="56" width="8" height="8" fill="currentColor"/>
<rect x="72" y="56" width="8" height="8" fill="currentColor"/>
<rect x="88" y="56" width="8" height="8" fill="currentColor"/>
<rect x="8" y="72" width="8" height="8" fill="currentColor"/>
<rect x="24" y="72" width="8" height="8" fill="currentColor"/>
<rect x="40" y="72" width="8" height="8" fill="currentColor"/>
<rect x="56" y="72" width="8" height="8" fill="currentColor"/>
<rect x="72" y="72" width="8" height="8" fill="currentColor"/>
<rect x="88" y="72" width="8" height="8" fill="currentColor"/>
<rect x="8" y="88" width="8" height="8" fill="currentColor"/>
<rect x="24" y="88" width="8" height="8" fill="currentColor"/>
<rect x="40" y="88" width="8" height="8" fill="currentColor"/>
<rect x="56" y="88" width="8" height="8" fill="currentColor"/>
<rect x="72" y="88" width="8" height="8" fill="currentColor"/>
<rect x="88" y="88" width="8" height="8" fill="currentColor"/>
</svg>

