<svg width="27" height="30" viewBox="0 0 27 30" fill="none" xmlns="http://www.w3.org/2000/svg">
<path d="M12.15 27.9835C12.5604 28.2204 13.026 28.3452 13.5 28.3452C13.974 28.3452 14.4396 28.2204 14.85 27.9835L24.3003 22.5833C24.7103 22.3466 25.0509 22.0062 25.2879 21.5962C25.5248 21.1863 25.6498 20.7213 25.6503 20.2478V9.4475C25.6498 8.97401 25.5248 8.50897 25.2879 8.09904C25.0509 7.68911 24.7103 7.34869 24.3003 7.11195L14.85 1.71181C14.4396 1.47483 13.974 1.35007 13.5 1.35007C13.026 1.35007 12.5604 1.47483 12.15 1.71181L2.69974 7.11195C2.28968 7.34869 1.94909 7.68911 1.71214 8.09904C1.47518 8.50897 1.35019 8.97401 1.3497 9.4475V20.2478C1.35019 20.7213 1.47518 21.1863 1.71214 21.5962C1.94909 22.0062 2.28968 22.3466 2.69974 22.5833L12.15 27.9835Z" stroke="#155DFC" stroke-width="2.66667" stroke-linecap="round" stroke-linejoin="round"/>
</svg>
