<svg width="754" height="20" viewBox="0 0 754 20" fill="none" xmlns="http://www.w3.org/2000/svg">
<path d="M9.16667 18.1083C9.42003 18.2546 9.70744 18.3316 10 18.3316C10.2926 18.3316 10.58 18.2546 10.8333 18.1083L16.6667 14.775C16.9198 14.6289 17.13 14.4187 17.2763 14.1657C17.4225 13.9126 17.4997 13.6256 17.5 13.3333V6.66666C17.4997 6.37438 17.4225 6.08733 17.2763 5.83429C17.13 5.58125 16.9198 5.37112 16.6667 5.22499L10.8333 1.89166C10.58 1.74538 10.2926 1.66837 10 1.66837C9.70744 1.66837 9.42003 1.74538 9.16667 1.89166L3.33333 5.22499C3.08022 5.37112 2.86998 5.58125 2.72372 5.83429C2.57745 6.08733 2.5003 6.37438 2.5 6.66666V13.3333C2.5003 13.6256 2.57745 13.9126 2.72372 14.1657C2.86998 14.4187 3.08022 14.6289 3.33333 14.775L9.16667 18.1083Z" stroke="#1A2B4C" stroke-width="1.66667" stroke-linecap="round" stroke-linejoin="round"/>
<path d="M10 18.3333V10" stroke="#1A2B4C" stroke-width="1.66667" stroke-linecap="round" stroke-linejoin="round"/>
<path d="M2.7417 5.83334L10 10L17.2584 5.83334" stroke="#1A2B4C" stroke-width="1.66667" stroke-linecap="round" stroke-linejoin="round"/>
<path d="M6.25 3.55832L13.75 7.84999" stroke="#1A2B4C" stroke-width="1.66667" stroke-linecap="round" stroke-linejoin="round"/>
<path d="M28.9453 15.3469V13.8C29.1224 13.9562 29.3333 14.0969 29.5781 14.2219C29.8281 14.3469 30.0885 14.4536 30.3594 14.5422C30.6354 14.6255 30.9115 14.6906 31.1875 14.7375C31.4635 14.7844 31.7188 14.8078 31.9531 14.8078C32.7604 14.8078 33.362 14.6594 33.7578 14.3625C34.1589 14.0604 34.3594 13.6281 34.3594 13.0656C34.3594 12.7635 34.2917 12.5005 34.1562 12.2766C34.026 12.0526 33.8438 11.8495 33.6094 11.6672C33.375 11.4797 33.0964 11.3026 32.7734 11.1359C32.4557 10.9641 32.112 10.7844 31.7422 10.5969C31.3516 10.3989 30.987 10.1984 30.6484 9.9953C30.3099 9.79218 30.0156 9.56822 29.7656 9.32343C29.5156 9.07863 29.3177 8.80259 29.1719 8.4953C29.0312 8.1828 28.9609 7.81822 28.9609 7.40155C28.9609 6.89113 29.0729 6.44843 29.2969 6.07343C29.5208 5.69322 29.8151 5.38072 30.1797 5.13593C30.5443 4.89113 30.9583 4.70884 31.4219 4.58905C31.8906 4.46926 32.3672 4.40936 32.8516 4.40936C33.9557 4.40936 34.7604 4.54218 35.2656 4.8078V6.28436C34.6042 5.82603 33.7552 5.59686 32.7188 5.59686C32.4323 5.59686 32.1458 5.62811 31.8594 5.69061C31.5729 5.7479 31.3177 5.84426 31.0938 5.97968C30.8698 6.11509 30.6875 6.28957 30.5469 6.50311C30.4062 6.71665 30.3359 6.97707 30.3359 7.28436C30.3359 7.57082 30.388 7.81822 30.4922 8.02655C30.6016 8.23488 30.7604 8.42499 30.9688 8.59686C31.1771 8.76874 31.4297 8.9354 31.7266 9.09686C32.0286 9.25832 32.375 9.4354 32.7656 9.62811C33.1667 9.82603 33.5469 10.0344 33.9062 10.2531C34.2656 10.4719 34.5807 10.7141 34.8516 10.9797C35.1224 11.2453 35.3359 11.5396 35.4922 11.8625C35.6536 12.1854 35.7344 12.5552 35.7344 12.9719C35.7344 13.5239 35.625 13.9927 35.4062 14.3781C35.1927 14.7583 34.901 15.0682 34.5312 15.3078C34.1667 15.5474 33.7448 15.7193 33.2656 15.8234C32.7865 15.9328 32.2812 15.9875 31.75 15.9875C31.5729 15.9875 31.3542 15.9719 31.0938 15.9406C30.8333 15.9146 30.5677 15.8729 30.2969 15.8156C30.026 15.7635 29.7682 15.6984 29.5234 15.6203C29.2839 15.537 29.0911 15.4458 28.9453 15.3469ZM46.3906 15.8H45.0781V10.6906H39.2812V15.8H37.9688V4.59686H39.2812V9.51093H45.0781V4.59686H46.3906V15.8ZM53.25 11.8469H48.9844V10.8391H53.25V11.8469ZM62.2344 10.1516C62.2344 11.0891 62.1484 11.9198 61.9766 12.6437C61.8099 13.3677 61.5651 13.9797 61.2422 14.4797C60.9245 14.9745 60.5312 15.3521 60.0625 15.6125C59.599 15.8677 59.0703 15.9953 58.4766 15.9953C57.9141 15.9953 57.4115 15.8729 56.9688 15.6281C56.5312 15.3781 56.1615 15.0161 55.8594 14.5422C55.5573 14.0682 55.3281 13.4875 55.1719 12.8C55.0156 12.1073 54.9375 11.3156 54.9375 10.425C54.9375 9.44582 55.0182 8.58124 55.1797 7.83124C55.3464 7.08124 55.5885 6.45363 55.9062 5.94843C56.224 5.43801 56.6172 5.0552 57.0859 4.79999C57.5599 4.53957 58.1016 4.40936 58.7109 4.40936C61.0599 4.40936 62.2344 6.32343 62.2344 10.1516ZM60.9219 10.2766C60.9219 7.08905 60.1641 5.4953 58.6484 5.4953C57.0495 5.4953 56.25 7.1177 56.25 10.3625C56.25 13.3885 57.0339 14.9016 58.6016 14.9016C60.1484 14.9016 60.9219 13.3599 60.9219 10.2766ZM70.8594 10.1516C70.8594 11.0891 70.7734 11.9198 70.6016 12.6437C70.4349 13.3677 70.1901 13.9797 69.8672 14.4797C69.5495 14.9745 69.1562 15.3521 68.6875 15.6125C68.224 15.8677 67.6953 15.9953 67.1016 15.9953C66.5391 15.9953 66.0365 15.8729 65.5938 15.6281C65.1562 15.3781 64.7865 15.0161 64.4844 14.5422C64.1823 14.0682 63.9531 13.4875 63.7969 12.8C63.6406 12.1073 63.5625 11.3156 63.5625 10.425C63.5625 9.44582 63.6432 8.58124 63.8047 7.83124C63.9714 7.08124 64.2135 6.45363 64.5312 5.94843C64.849 5.43801 65.2422 5.0552 65.7109 4.79999C66.1849 4.53957 66.7266 4.40936 67.3359 4.40936C69.6849 4.40936 70.8594 6.32343 70.8594 10.1516ZM69.5469 10.2766C69.5469 7.08905 68.7891 5.4953 67.2734 5.4953C65.6745 5.4953 64.875 7.1177 64.875 10.3625C64.875 13.3885 65.6589 14.9016 67.2266 14.9016C68.7734 14.9016 69.5469 13.3599 69.5469 10.2766ZM77.1719 15.8H75.8906V6.1203C75.7917 6.21926 75.6458 6.33384 75.4531 6.46405C75.2656 6.58905 75.0521 6.71405 74.8125 6.83905C74.5781 6.96405 74.3281 7.08124 74.0625 7.19061C73.8021 7.29999 73.5469 7.38593 73.2969 7.44843V6.15155C73.5781 6.07343 73.875 5.96926 74.1875 5.83905C74.5052 5.70363 74.8151 5.5552 75.1172 5.39374C75.4245 5.22707 75.7135 5.0552 75.9844 4.87811C76.2552 4.69582 76.4896 4.51874 76.6875 4.34686H77.1719V15.8ZM89.9219 11.8469H85.6562V10.8391H89.9219V11.8469ZM96.2734 15.3469V13.8C96.4505 13.9562 96.6615 14.0969 96.9062 14.2219C97.1562 14.3469 97.4167 14.4536 97.6875 14.5422C97.9635 14.6255 98.2396 14.6906 98.5156 14.7375C98.7917 14.7844 99.0469 14.8078 99.2812 14.8078C100.089 14.8078 100.69 14.6594 101.086 14.3625C101.487 14.0604 101.688 13.6281 101.688 13.0656C101.688 12.7635 101.62 12.5005 101.484 12.2766C101.354 12.0526 101.172 11.8495 100.938 11.6672C100.703 11.4797 100.424 11.3026 100.102 11.1359C99.7839 10.9641 99.4401 10.7844 99.0703 10.5969C98.6797 10.3989 98.3151 10.1984 97.9766 9.9953C97.638 9.79218 97.3438 9.56822 97.0938 9.32343C96.8438 9.07863 96.6458 8.80259 96.5 8.4953C96.3594 8.1828 96.2891 7.81822 96.2891 7.40155C96.2891 6.89113 96.401 6.44843 96.625 6.07343C96.849 5.69322 97.1432 5.38072 97.5078 5.13593C97.8724 4.89113 98.2865 4.70884 98.75 4.58905C99.2188 4.46926 99.6953 4.40936 100.18 4.40936C101.284 4.40936 102.089 4.54218 102.594 4.8078V6.28436C101.932 5.82603 101.083 5.59686 100.047 5.59686C99.7604 5.59686 99.474 5.62811 99.1875 5.69061C98.901 5.7479 98.6458 5.84426 98.4219 5.97968C98.1979 6.11509 98.0156 6.28957 97.875 6.50311C97.7344 6.71665 97.6641 6.97707 97.6641 7.28436C97.6641 7.57082 97.7161 7.81822 97.8203 8.02655C97.9297 8.23488 98.0885 8.42499 98.2969 8.59686C98.5052 8.76874 98.7578 8.9354 99.0547 9.09686C99.3568 9.25832 99.7031 9.4354 100.094 9.62811C100.495 9.82603 100.875 10.0344 101.234 10.2531C101.594 10.4719 101.909 10.7141 102.18 10.9797C102.451 11.2453 102.664 11.5396 102.82 11.8625C102.982 12.1854 103.062 12.5552 103.062 12.9719C103.062 13.5239 102.953 13.9927 102.734 14.3781C102.521 14.7583 102.229 15.0682 101.859 15.3078C101.495 15.5474 101.073 15.7193 100.594 15.8234C100.115 15.9328 99.6094 15.9875 99.0781 15.9875C98.901 15.9875 98.6823 15.9719 98.4219 15.9406C98.1615 15.9146 97.8958 15.8729 97.625 15.8156C97.3542 15.7635 97.0964 15.6984 96.8516 15.6203C96.612 15.537 96.4193 15.4458 96.2734 15.3469ZM111.766 15.8H110.484V11.1906C110.484 9.52395 109.865 8.69061 108.625 8.69061C108 8.69061 107.474 8.9328 107.047 9.41718C106.62 9.89634 106.406 10.5135 106.406 11.2687V15.8H105.125V3.95624H106.406V9.12811H106.438C107.052 8.1177 107.927 7.61249 109.062 7.61249C110.865 7.61249 111.766 8.69843 111.766 10.8703V15.8ZM114.844 5.76874C114.615 5.76874 114.419 5.69061 114.258 5.53436C114.096 5.37811 114.016 5.1802 114.016 4.94061C114.016 4.70103 114.096 4.50311 114.258 4.34686C114.419 4.1854 114.615 4.10468 114.844 4.10468C115.078 4.10468 115.276 4.1854 115.438 4.34686C115.604 4.50311 115.688 4.70103 115.688 4.94061C115.688 5.16978 115.604 5.36509 115.438 5.52655C115.276 5.68801 115.078 5.76874 114.844 5.76874ZM115.469 15.8H114.188V7.79999H115.469V15.8ZM119.375 14.6437H119.344V19.4797H118.062V7.79999H119.344V9.20624H119.375C120.005 8.14374 120.927 7.61249 122.141 7.61249C123.172 7.61249 123.977 7.97186 124.555 8.69061C125.133 9.40415 125.422 10.3625 125.422 11.5656C125.422 12.9042 125.096 13.9771 124.445 14.7844C123.794 15.5864 122.904 15.9875 121.773 15.9875C120.737 15.9875 119.938 15.5396 119.375 14.6437ZM119.344 11.4172V12.5344C119.344 13.1958 119.557 13.7583 119.984 14.2219C120.417 14.6802 120.964 14.9094 121.625 14.9094C122.401 14.9094 123.008 14.6125 123.445 14.0187C123.888 13.425 124.109 12.5995 124.109 11.5422C124.109 10.6516 123.904 9.95363 123.492 9.44843C123.081 8.94322 122.523 8.69061 121.82 8.69061C121.076 8.69061 120.477 8.95103 120.023 9.47186C119.57 9.98749 119.344 10.6359 119.344 11.4172ZM138.828 15.8H137.547V11.2062C137.547 10.3208 137.409 9.6802 137.133 9.28436C136.862 8.88853 136.404 8.69061 135.758 8.69061C135.211 8.69061 134.745 8.94061 134.359 9.44061C133.979 9.94061 133.789 10.5396 133.789 11.2375V15.8H132.508V11.05C132.508 9.47707 131.901 8.69061 130.688 8.69061C130.125 8.69061 129.661 8.92759 129.297 9.40155C128.932 9.8703 128.75 10.4823 128.75 11.2375V15.8H127.469V7.79999H128.75V9.06561H128.781C129.349 8.09686 130.177 7.61249 131.266 7.61249C131.812 7.61249 132.289 7.76613 132.695 8.07343C133.102 8.37551 133.38 8.77395 133.531 9.26874C134.125 8.16457 135.01 7.61249 136.188 7.61249C137.948 7.61249 138.828 8.69843 138.828 10.8703V15.8ZM147.68 12.1203H142.031C142.052 13.0109 142.292 13.6984 142.75 14.1828C143.208 14.6672 143.839 14.9094 144.641 14.9094C145.542 14.9094 146.37 14.6125 147.125 14.0187V15.2219C146.422 15.7323 145.492 15.9875 144.336 15.9875C143.206 15.9875 142.318 15.6255 141.672 14.9016C141.026 14.1724 140.703 13.1489 140.703 11.8312C140.703 10.5864 141.055 9.57343 141.758 8.79218C142.466 8.00572 143.344 7.61249 144.391 7.61249C145.438 7.61249 146.247 7.95103 146.82 8.62811C147.393 9.3052 147.68 10.2453 147.68 11.4484V12.1203ZM146.367 11.0344C146.362 10.2948 146.182 9.71926 145.828 9.3078C145.479 8.89634 144.992 8.69061 144.367 8.69061C143.763 8.69061 143.25 8.90676 142.828 9.33905C142.406 9.77134 142.146 10.3364 142.047 11.0344H146.367ZM156.266 15.8H154.984V11.2375C154.984 9.53957 154.365 8.69061 153.125 8.69061C152.484 8.69061 151.953 8.9328 151.531 9.41718C151.115 9.89634 150.906 10.5031 150.906 11.2375V15.8H149.625V7.79999H150.906V9.12811H150.938C151.542 8.1177 152.417 7.61249 153.562 7.61249C154.438 7.61249 155.107 7.89634 155.57 8.46405C156.034 9.02655 156.266 9.84165 156.266 10.9094V15.8ZM162.398 15.7219C162.096 15.8885 161.698 15.9719 161.203 15.9719C159.802 15.9719 159.102 15.1906 159.102 13.6281V8.89374H157.727V7.79999H159.102V5.84686L160.383 5.4328V7.79999H162.398V8.89374H160.383V13.4016C160.383 13.938 160.474 14.3208 160.656 14.55C160.839 14.7792 161.141 14.8937 161.562 14.8937C161.885 14.8937 162.164 14.8052 162.398 14.6281V15.7219ZM173.188 15.9875C171.599 15.9875 170.326 15.4641 169.367 14.4172C168.414 13.3703 167.938 12.0083 167.938 10.3312C167.938 8.52915 168.424 7.09165 169.398 6.01874C170.372 4.94582 171.698 4.40936 173.375 4.40936C174.922 4.40936 176.167 4.9302 177.109 5.97186C178.057 7.01353 178.531 8.37551 178.531 10.0578C178.531 11.8859 178.047 13.3312 177.078 14.3937C176.109 15.4562 174.812 15.9875 173.188 15.9875ZM173.281 5.59686C172.104 5.59686 171.148 6.02134 170.414 6.8703C169.68 7.71926 169.312 8.83384 169.312 10.2141C169.312 11.5943 169.669 12.7062 170.383 13.55C171.102 14.3885 172.036 14.8078 173.188 14.8078C174.417 14.8078 175.385 14.4068 176.094 13.6047C176.802 12.8026 177.156 11.6802 177.156 10.2375C177.156 8.75832 176.812 7.61509 176.125 6.8078C175.438 6.00051 174.49 5.59686 173.281 5.59686ZM186.852 7.79999L183.664 15.8H182.406L179.375 7.79999H180.781L182.812 13.6125C182.964 14.0396 183.057 14.412 183.094 14.7297H183.125C183.177 14.3286 183.26 13.9667 183.375 13.6437L185.5 7.79999H186.852ZM194.664 12.1203H189.016C189.036 13.0109 189.276 13.6984 189.734 14.1828C190.193 14.6672 190.823 14.9094 191.625 14.9094C192.526 14.9094 193.354 14.6125 194.109 14.0187V15.2219C193.406 15.7323 192.477 15.9875 191.32 15.9875C190.19 15.9875 189.302 15.6255 188.656 14.9016C188.01 14.1724 187.688 13.1489 187.688 11.8312C187.688 10.5864 188.039 9.57343 188.742 8.79218C189.451 8.00572 190.328 7.61249 191.375 7.61249C192.422 7.61249 193.232 7.95103 193.805 8.62811C194.378 9.3052 194.664 10.2453 194.664 11.4484V12.1203ZM193.352 11.0344C193.346 10.2948 193.167 9.71926 192.812 9.3078C192.464 8.89634 191.977 8.69061 191.352 8.69061C190.747 8.69061 190.234 8.90676 189.812 9.33905C189.391 9.77134 189.13 10.3364 189.031 11.0344H193.352ZM200.781 9.09686C200.557 8.92499 200.234 8.83905 199.812 8.83905C199.266 8.83905 198.807 9.09686 198.438 9.61249C198.073 10.1281 197.891 10.8312 197.891 11.7219V15.8H196.609V7.79999H197.891V9.44843H197.922C198.104 8.88593 198.383 8.44843 198.758 8.13593C199.133 7.81822 199.552 7.65936 200.016 7.65936C200.349 7.65936 200.604 7.69582 200.781 7.76874V9.09686ZM208.461 7.79999L205.273 15.8H204.016L200.984 7.79999H202.391L204.422 13.6125C204.573 14.0396 204.667 14.412 204.703 14.7297H204.734C204.786 14.3286 204.87 13.9667 204.984 13.6437L207.109 7.79999H208.461ZM210.5 5.76874C210.271 5.76874 210.076 5.69061 209.914 5.53436C209.753 5.37811 209.672 5.1802 209.672 4.94061C209.672 4.70103 209.753 4.50311 209.914 4.34686C210.076 4.1854 210.271 4.10468 210.5 4.10468C210.734 4.10468 210.932 4.1854 211.094 4.34686C211.26 4.50311 211.344 4.70103 211.344 4.94061C211.344 5.16978 211.26 5.36509 211.094 5.52655C210.932 5.68801 210.734 5.76874 210.5 5.76874ZM211.125 15.8H209.844V7.79999H211.125V15.8ZM220.148 12.1203H214.5C214.521 13.0109 214.76 13.6984 215.219 14.1828C215.677 14.6672 216.307 14.9094 217.109 14.9094C218.01 14.9094 218.839 14.6125 219.594 14.0187V15.2219C218.891 15.7323 217.961 15.9875 216.805 15.9875C215.674 15.9875 214.786 15.6255 214.141 14.9016C213.495 14.1724 213.172 13.1489 213.172 11.8312C213.172 10.5864 213.523 9.57343 214.227 8.79218C214.935 8.00572 215.812 7.61249 216.859 7.61249C217.906 7.61249 218.716 7.95103 219.289 8.62811C219.862 9.3052 220.148 10.2453 220.148 11.4484V12.1203ZM218.836 11.0344C218.831 10.2948 218.651 9.71926 218.297 9.3078C217.948 8.89634 217.461 8.69061 216.836 8.69061C216.232 8.69061 215.719 8.90676 215.297 9.33905C214.875 9.77134 214.615 10.3364 214.516 11.0344H218.836ZM232.172 7.79999L229.773 15.8H228.445L226.797 10.0734C226.734 9.85468 226.693 9.60728 226.672 9.33124H226.641C226.625 9.51874 226.57 9.76093 226.477 10.0578L224.688 15.8H223.406L220.984 7.79999H222.328L223.984 13.8156C224.036 13.9979 224.073 14.2375 224.094 14.5344H224.156C224.172 14.3052 224.219 14.0604 224.297 13.8L226.141 7.79999H227.312L228.969 13.8312C229.021 14.0239 229.06 14.2635 229.086 14.55H229.148C229.159 14.3469 229.203 14.1073 229.281 13.8312L230.906 7.79999H232.172Z" fill="#1A2B4C"/>
</svg>
