<svg width="17" height="19" viewBox="0 0 17 19" fill="none" xmlns="http://www.w3.org/2000/svg">
<path d="M7.64997 17.6195C7.90841 17.7687 8.20158 17.8472 8.5 17.8472C8.79842 17.8472 9.09159 17.7687 9.35003 17.6195L15.3003 14.2193C15.5585 14.0703 15.7729 13.8559 15.9221 13.5978C16.0713 13.3397 16.15 13.0469 16.1503 12.7488V5.9485C16.15 5.65037 16.0713 5.35756 15.9221 5.09945C15.7729 4.84134 15.5585 4.62701 15.3003 4.47794L9.35003 1.07781C9.09159 0.928597 8.79842 0.850044 8.5 0.850044C8.20158 0.850044 7.90841 0.928597 7.64997 1.07781L1.69973 4.47794C1.44155 4.62701 1.2271 4.84134 1.0779 5.09945C0.928706 5.35756 0.850007 5.65037 0.849701 5.9485V12.7488C0.850007 13.0469 0.928706 13.3397 1.0779 13.5978C1.2271 13.8559 1.44155 14.0703 1.69973 14.2193L7.64997 17.6195Z" stroke="#155DFC" stroke-width="1.66667" stroke-linecap="round" stroke-linejoin="round"/>
</svg>
